<svg viewBox="0 0 1200 1460.678" xml:space="preserve" xmlns="http://www.w3.org/2000/svg">
    <path d="M598.285 365.18 298.284 184.168 149.143 276.24.002 368.312l.86 182.578.86 182.578.846 182.603.86 182.578 150 90.506 149.14-92.072-150-90.506-.846-182.603-.86-182.578-.86-182.578 149.141-92.072 450.002 271.518 149.14-92.072-150-90.506z" fill="#0e5257"/>
    <path d="M746.58 90.505 596.578 0l-149.14 92.071-.013.025.86 182.578 149.14-92.072 150 90.506.014-.025-.013.025 300 181.012.014-.025-.013.025.86 182.578-149.142 92.072-149.14 92.072-149.141 92.072.86 182.578 149.14-92.072 149.141-92.072 149.14-92.072 149.142-92.072-.86-182.578-.846-182.603L896.58 181.011z" fill="#0e5257"/>
    <path d="m752.57 1368.6 149.154-92.096 149.141-92.072 149.141-92.072-.86-182.578-150-90.506.86 182.578-149.141 92.072-149.141 92.072-149.154 92.097-150.001-90.506-.846-182.603-.86-182.578-.86-182.578-150-90.506.86 182.578.86 182.578.846 182.603.86 182.578 300 181.012z" fill="#0e5257"/>
</svg>
